Coordinates
version=1
nRows=14
nColumns=40
inDegrees=yes

Units are S.I. units (second, meters, Newtons, ...)
If the header above contains a line with 'inDegrees', this indicates whether rotational values are in degrees (yes) or radians (no).

endheader
time	pelvis_tilt	pelvis_list	pelvis_rotation	pelvis_tx	pelvis_ty	pelvis_tz	hip_flexion_r	hip_adduction_r	hip_rotation_r	knee_angle_r	knee_angle_r_beta	ankle_angle_r	subtalar_angle_r	mtp_angle_r	hip_flexion_l	hip_adduction_l	hip_rotation_l	knee_angle_l	knee_angle_l_beta	ankle_angle_l	subtalar_angle_l	mtp_angle_l	lumbar_extension	lumbar_bending	lumbar_rotation	arm_flex_r	arm_add_r	arm_rot_r	elbow_flex_r	pro_sup_r	wrist_flex_r	wrist_dev_r	arm_flex_l	arm_add_l	arm_rot_l	elbow_flex_l	pro_sup_l	wrist_flex_l	wrist_dev_l
      3.57500000	     14.27289720	     -4.57403601	     -4.51280392	     -0.27069955	      0.92890142	     -1.04829705	     51.03586848	      3.13694705	     -4.68602528	     27.13083327	      0.47352237	     -1.07513675	      0.00000000	      0.00000000	     17.96454999	     -0.70543655	     -8.31048590	     69.86070722	      1.21929936	     32.49685788	      0.00000000	      0.00000000	    -19.61605217	      6.20376017	      6.21404782	     89.78087366	    -11.35933301	     42.46679872	     26.27150622	     85.92532166	      0.00000000	      0.00000000	     89.84843774	    -18.89209867	     45.39551312	     28.15951196	     84.71016778	      0.00000000	      0.00000000
      3.58000000	     14.21737647	     -4.45203486	     -4.41409929	     -0.27094417	      0.92745221	     -1.04819483	     51.16088220	      3.01504767	     -4.59943564	     27.19398524	      0.47462458	     -1.06691325	      0.00000000	      0.00000000	     18.20803665	     -0.64427985	     -8.35578454	     70.14657385	      1.22428867	     32.58163372	      0.00000000	      0.00000000	    -19.60071322	      5.99061539	      6.05035898	     89.78706722	    -11.34593395	     42.20927276	     26.32204877	     85.93905701	      0.00000000	      0.00000000	     89.85209716	    -18.85431771	     45.10677508	     28.29638520	     84.63213348	      0.00000000	      0.00000000
      3.58500000	     14.23111508	     -4.40840213	     -4.34433955	     -0.27108921	      0.92618115	     -1.04803643	     51.16506692	      2.96699576	     -4.59787791	     27.18152445	      0.47440710	     -1.07526997	      0.00000000	      0.00000000	     18.33558759	     -0.69531249	     -8.44117239	     70.42432203	      1.22913629	     32.70917890	      0.00000000	      0.00000000	    -19.66341489	      5.85594171	      5.95253663	     89.79210132	    -11.31366031	     41.95661755	     26.38287587	     85.99330589	      0.00000000	      0.00000000	     89.85485593	    -18.86210688	     44.94421343	     28.43955559	     84.46571245	      0.00000000	      0.00000000
      3.59000000	     14.11710867	     -4.40140398	     -4.34511617	     -0.27086459	      0.92469464	     -1.04784871	     51.29774529	      2.99228603	     -4.58150619	     27.16949326	      0.47419711	     -1.07091470	      0.00000000	      0.00000000	     18.57942089	     -0.78312181	     -8.51839935	     70.69340182	      1.23383262	     32.63592952	      0.00000000	      0.00000000	    -19.55244859	      5.75348578	      5.90323628	     89.79329448	    -11.28833410	     41.83861821	     26.41180381	     85.96431635	      0.00000000	      0.00000000	     89.85569570	    -18.82045719	     44.82693758	     28.45540793	     84.53534535	      0.00000000	      0.00000000
      3.59500000	     14.13011570	     -4.33602780	     -4.17445841	     -0.27153676	      0.92328160	     -1.04777678	     51.31701180	      2.85317248	     -4.62866994	     27.13728547	      0.47363498	     -1.16701586	      0.00000000	      0.00000000	     18.80871939	     -0.75377967	     -8.46851009	     71.04540357	      1.23997621	     32.91423466	      0.00000000	      0.00000000	    -19.65061269	      5.60430394	      5.70328366	     89.80261939	    -11.26687016	     41.49256141	     26.54251755	     85.90296702	      0.00000000	      0.00000000	     89.86108267	    -18.79602756	     44.42637487	     28.62904554	     84.59808825	      0.00000000	      0.00000000
      3.60000000	     14.07533539	     -4.34220081	     -4.12768231	     -0.27164249	      0.92192437	     -1.04758621	     51.39373726	      2.85666993	     -4.68514307	     27.13483760	      0.47359226	     -1.16965474	      0.00000000	      0.00000000	     19.02816049	     -0.83964757	     -8.47273313	     71.32657579	      1.24488359	     32.73829884	      0.00000000	      0.00000000	    -19.63166632	      5.53279923	      5.65276859	     89.80542623	    -11.28655480	     41.45035626	     26.59743812	     85.81995282	      0.00000000	      0.00000000	     89.86306478	    -18.76946185	     44.21320033	     28.69376641	     84.33140813	      0.00000000	      0.00000000
      3.60500000	     14.06117665	     -4.23247660	     -4.11755924	     -0.27173646	      0.92055260	     -1.04739482	     51.44141333	      2.80590312	     -4.57038758	     27.14392625	      0.47375088	     -1.10775799	      0.00000000	      0.00000000	     19.16977946	     -0.77879363	     -8.55932385	     71.58302734	      1.24935952	     33.18502714	      0.00000000	      0.00000000	    -19.65460876	      5.30182276	      5.55273283	     89.80909932	    -11.21733727	     41.02736478	     26.65440380	     85.90181856	      0.00000000	      0.00000000	     89.86506809	    -18.77437904	     44.02368587	     28.85198235	     84.46096643	      0.00000000	      0.00000000
      3.61000000	     14.04916429	     -4.20529648	     -4.05317040	     -0.27195446	      0.91929565	     -1.04730588	     51.46981466	      2.76615564	     -4.55360857	     27.10286191	      0.47303418	     -1.17804978	      0.00000000	      0.00000000	     19.33851412	     -0.80525596	     -8.56764815	     71.83734341	      1.25379817	     33.05618280	      0.00000000	      0.00000000	    -19.69446022	      5.19186826	      5.47153197	     89.81379196	    -11.22405861	     40.88497959	     26.74596007	     85.82517325	      0.00000000	      0.00000000	     89.86661560	    -18.73168241	     43.72591129	     28.93164018	     84.72142341	      0.00000000	      0.00000000
      3.61500000	     14.00402630	     -4.12122758	     -3.97654959	     -0.27212292	      0.91793845	     -1.04722150	     51.56033480	      2.67326864	     -4.54047387	     27.14232382	      0.47372292	     -1.15757741	      0.00000000	      0.00000000	     19.53837321	     -0.75219033	     -8.57356451	     72.10587184	      1.25848487	     33.39829804	      0.00000000	      0.00000000	    -19.69706636	      5.02161648	      5.34605075	     89.81871423	    -11.23595974	     40.66392812	     26.86043443	     85.78011734	      0.00000000	      0.00000000	     89.86874827	    -18.70319984	     43.47705856	     29.03874299	     84.82804913	      0.00000000	      0.00000000
      3.62000000	     13.95121810	     -4.05145996	     -3.96895054	     -0.27216591	      0.91669862	     -1.04707035	     51.63708755	      2.64056431	     -4.50652145	     27.13936425	      0.47367126	     -1.09769277	      0.00000000	      0.00000000	     19.72899391	     -0.74126208	     -8.63912816	     72.35463608	      1.26282663	     33.48290572	      0.00000000	      0.00000000	    -19.68024655	      4.84753517	      5.27955412	     89.81901442	    -11.19080233	     40.40935183	     26.92412364	     85.84208626	      0.00000000	      0.00000000	     89.87013657	    -18.68053575	     43.40483315	     29.09226131	     84.53434180	      0.00000000	      0.00000000
      3.62500000	     13.92118404	     -4.03896180	     -3.93784878	     -0.27232225	      0.91538202	     -1.04690889	     51.68859218	      2.63720468	     -4.53444634	     27.12170266	      0.47336301	     -1.10646435	      0.00000000	      0.00000000	     19.90552176	     -0.79169064	     -8.65210381	     72.60999173	      1.26728343	     33.37896070	      0.00000000	      0.00000000	    -19.70865446	      4.74579778	      5.18959495	     89.82292628	    -11.16330647	     40.23895485	     27.07856076	     85.75801914	      0.00000000	      0.00000000	     89.87147345	    -18.70921429	     43.14302662	     29.21517779	     84.77579046	      0.00000000	      0.00000000
      3.63000000	     13.89676035	     -3.94929073	     -3.87956631	     -0.27265147	      0.91407852	     -1.04687305	     51.75421625	      2.53886384	     -4.54053280	     27.11821855	      0.47330220	     -1.18380196	      0.00000000	      0.00000000	     20.11525605	     -0.70482077	     -8.60084090	     72.88535477	      1.27208942	     33.47149349	      0.00000000	      0.00000000	    -19.74734392	      4.56929763	      5.05453087	     89.82576065	    -11.11161620	     39.91622441	     27.13683290	     85.87290656	      0.00000000	      0.00000000	     89.87365063	    -18.69885186	     43.04986903	     29.31493882	     84.49981623	      0.00000000	      0.00000000
      3.63500000	     13.86583508	     -3.91121445	     -3.87796471	     -0.27267479	      0.91289549	     -1.04670643	     51.81141173	      2.53602472	     -4.53525518	     27.13449586	      0.47358629	     -1.11638612	      0.00000000	      0.00000000	     20.26113196	     -0.72998839	     -8.65558169	     73.11730216	      1.27613766	     33.59166231	      0.00000000	      0.00000000	    -19.76170756	      4.43667072	      5.01543156	     89.82791487	    -11.10530635	     39.75877265	     27.22959842	     85.84414364	      0.00000000	      0.00000000	     89.87440449	    -18.67453792	     42.88627622	     29.36276693	     84.58366386	      0.00000000	      0.00000000
      3.64000000	     13.83927581	     -3.85612690	     -3.90991992	     -0.27283416	      0.91164961	     -1.04643767	     51.86337138	      2.55263963	     -4.45057687	     27.10895421	      0.47314051	     -1.11201064	      0.00000000	      0.00000000	     20.42691723	     -0.76442461	     -8.76118234	     73.39260839	      1.28094266	     33.95145287	      0.00000000	      0.00000000	    -19.80102002	      4.26598555	      4.94737120	     89.83137145	    -11.03227992	     39.47336196	     27.33943152	     85.89066379	      0.00000000	      0.00000000	     89.87689039	    -18.68685048	     42.76776559	     29.47070179	     84.43529919	      0.00000000	      0.00000000
